<svg xmlns="http://www.w3.org/2000/svg" width="300" height="300" viewBox="0 0 300 300">
  <!-- Define the colors -->
  <defs>
    <style>
      .color1 { fill: rgb(0, 0, 0); }
      .color2 { fill: rgba(0, 0, 0, 0); }
      .color3 { fill: rgba(231, 227, 252, 0.87); }
      .color4 { fill: rgb(40, 36, 61); }
      .color5 { fill: rgb(0, 0, 238); }
      .color6 { fill: rgb(255, 255, 255); }
      .color7 { fill: rgb(255, 76, 81); }
      .color8 { fill: rgba(231, 227, 252, 0.38); }
      .color9 { fill: rgba(231, 227, 252, 0.04); }
      .color10 { fill: rgb(145, 85, 253); }
      .color11 { fill: rgb(170, 170, 170); }
      .color12 { fill: rgb(80, 75, 109); }
      .color13 { fill: rgb(86, 202, 0); }
      .color14 { fill: rgb(49, 45, 75); }
      .color15 { fill: rgba(231, 227, 252, 0.6); }
      .color16 { fill: rgba(231, 227, 252, 0.54); }
      .color17 { fill: rgba(231, 227, 252, 0.08); }
      .color18 { fill: rgba(231, 227, 252, 0.12); }
      .color19 { fill: rgba(86, 202, 0, 0.12); }
      .color20 { fill: rgb(72, 42, 126); }
      .color21 { fill: rgb(255, 180, 0); }
      .color22 { fill: rgba(255, 180, 0, 0.12); }
      .color23 { fill: rgba(255, 76, 81, 0.12); }
      .color24 { fill: rgb(255, 62, 29); }
      .color25 { fill: rgb(138, 141, 147); }
      .color26 { fill: rgb(22, 177, 255); }
      .color27 { fill: rgb(224, 224, 224); }
      .color28 { fill: rgb(231, 227, 252); }
      .color29 { fill: rgba(145, 85, 253, 0.16); }
    </style>
  </defs>

  <!-- Draw the squares -->
  <rect class="color1" x="0" y="0" width="50" height="50" />
  <rect class="color2" x="50" y="0" width="50" height="50" />
  <rect class="color3" x="100" y="0" width="50" height="50" />
  <rect class="color4" x="150" y="0" width="50" height="50" />
  <rect class="color5" x="200" y="0" width="50" height="50" />
  <rect class="color6" x="250" y="0" width="50" height="50" />
  <rect class="color7" x="0" y="50" width="50" height="50" />
  <rect class="color8" x="50" y="50" width="50" height="50" />
  <rect class="color9" x="100" y="50" width="50" height="50" />
  <rect class="color10" x="150" y="50" width="50" height="50" />
  <rect class="color11" x="200" y="50" width="50" height="50" />
  <rect class="color12" x="250" y="50" width="50" height="50" />
  <rect class="color13" x="0" y="100" width="50" height="50" />
  <rect class="color14" x="50" y="100" width="50" height="50" />
  <rect class="color15" x="100" y="100" width="50" height="50" />
  <rect class="color16" x="150" y="100" width="50" height="50" />
  <rect class="color17" x="200" y="100" width="50" height="50" />
  <rect class="color18" x="250" y="100" width="50" height="50" />
  <rect class="color19" x="0" y="150" width="50" height="50" />
  <rect class="color20" x="50" y="150" width="50" height="50" />
  <rect class="color21" x="100" y="150" width="50" height="50" />
  <rect class="color22" x="150" y="150" width="50" height="50" />
  <rect class="color23" x="200" y="150" width="50" height="50" />
  <rect class="color24" x="250" y="150" width="50" height="50" />
  <rect class="color25" x="0" y="200" width="50" height="50" />
  <rect class="color26" x="50" y="200" width="50" height="50" />
  <rect class="color27" x="100" y="200" width="50" height="50" />
  <rect class="color28" x="150" y="200" width="50" height="50" />
  <rect class="color29" x="200" y="200" width="50" height="50" />
</svg>
