<svg width="440" height="512" viewBox="0 0 440 512" fill="none" xmlns="http://www.w3.org/2000/svg">
<path d="M0.194713 50.3301C-2.26954 23.3067 18.9711 0 46.0633 0H393.937C421.039 0 442.283 23.3236 439.803 50.356L404.86 431.176C403.11 450.25 389.775 466.257 371.353 471.397L231.875 510.308C223.773 512.569 215.208 512.564 207.108 510.294L68.3857 471.426C49.9782 466.268 36.6639 450.259 34.9253 431.194L0.194713 50.3301Z" fill="url(#paint0_angular_1166_2363)"/>
<path d="M87.3612 81.3764C87.3612 76.2775 91.488 72.1441 96.5786 72.1441H210.49C215.581 72.1441 219.708 76.2775 219.708 81.3763V122.921C219.708 128.02 215.581 132.154 210.49 132.154H196.724C191.633 132.154 187.506 136.287 187.506 141.386V196.779C187.506 201.878 191.633 206.011 196.724 206.011H249.305C254.396 206.011 258.523 201.878 258.523 196.779V81.3764C258.523 76.2775 262.649 72.1441 267.74 72.1441H315.137C320.227 72.1441 324.354 76.2775 324.354 81.3764V386.264C324.354 391.363 320.227 395.496 315.137 395.496H267.74C262.649 395.496 258.523 391.363 258.523 386.264V275.253C258.523 270.154 254.396 266.021 249.305 266.021H196.724C191.633 266.021 187.506 270.154 187.506 275.253L187.506 364.509C187.506 381.505 173.751 395.283 156.782 395.283H96.5785C91.488 395.283 87.3612 391.15 87.3612 386.051V344.751C87.3612 339.652 91.488 335.519 96.5785 335.519H117.992C123.083 335.519 127.21 331.386 127.21 326.287V141.386C127.21 136.287 123.083 132.154 117.992 132.154H96.5786C91.488 132.154 87.3612 128.02 87.3612 122.921V81.3764Z" fill="white"/>
  <defs>
    <linearGradient id="paint0_angular_1166_2363" gradientUnits="userSpaceOnUse" x1="0%" y1="0%" x2="100%" y2="0%">
      <stop offset="49%" stop-color="#82D9FF"/>
      <stop offset="51%" stop-color="#00A1E7"/>
      <stop offset="100%" stop-color="#00A1E7"/>
    </linearGradient>
  </defs>
</svg>
